<?xml version="1.0" encoding="UTF-8"?>
<svg version="1.1" xmlns="http://www.w3.org/2000/svg" width="500" height="500">
<path d="M0 0 C165 0 330 0 500 0 C500 165 500 330 500 500 C335 500 170 500 0 500 C0 335 0 170 0 0 Z " fill="#1D1F1C" transform="translate(0,0)"/>
<path d="M0 0 C3.87132059 4.50732326 3.38151795 9.26082771 3.25 14.875 C3.24484375 15.74769531 3.2396875 16.62039062 3.234375 17.51953125 C3.1900297 21.20573448 3.04323002 24.71276515 2.4934082 28.3659668 C2.00353046 31.9739976 1.88617212 35.38872801 1.90234375 39.02734375 C1.90556641 40.31318359 1.90878906 41.59902344 1.91210938 42.92382812 C1.92046198 44.26171945 1.92892689 45.59961007 1.9375 46.9375 C1.94252341 48.30273274 1.94708483 49.66796726 1.95117188 51.03320312 C1.96291149 54.35551457 1.97933321 57.67773408 2 61 C2.99 61.33 3.98 61.66 5 62 C5.33 64.64 5.66 67.28 6 70 C6.78375 70.28875 7.5675 70.5775 8.375 70.875 C11 72 11 72 13 74 C14.4238996 72.79141448 14.4238996 72.79141448 14.3125 69.25 C14.28209676 65.00874751 12.97647875 63.06667508 10 60 C8.87743869 57.75487738 8.86586238 56.48543351 8.875 54 C8.87242187 53.29875 8.86984375 52.5975 8.8671875 51.875 C9 50 9 50 10 48 C10.23189127 44.61733208 10.39476044 41.24148635 10.51757812 37.85351562 C10.70004029 34.09754918 10.86964154 32.19553768 13 29 C13.09122625 26.22514111 13.09122625 26.22514111 12.875 23.1875 C12.7686427 16.43790236 12.7686427 16.43790236 14.6875 13.25 C17 11 17 11 19.5 10.25 C22 11 22 11 24.375 13.4375 C26.21894467 17.47999409 26.06736822 19.10848539 25.359375 23.328125 C24.9327424 26.5000456 24.95733674 29.55025554 25 32.75 C25.05884791 51.01246773 25.05884791 51.01246773 21.5 59.125 C17.93600793 67.47521774 18.10389775 76.05534858 18 85 C18.77730469 84.67773438 19.55460938 84.35546875 20.35546875 84.0234375 C24.04175837 82.59683797 26.39863521 82.3128472 30.09375 83.8984375 C32.08955 84.88931004 34.0525656 85.91755507 36 87 C36.26554688 86.45730469 36.53109375 85.91460937 36.8046875 85.35546875 C37.15789062 84.64003906 37.51109375 83.92460937 37.875 83.1875 C38.39707031 82.12595703 38.39707031 82.12595703 38.9296875 81.04296875 C40 79 40 79 42 76 C42 75.01 42 74.02 42 73 C42.66 73 43.32 73 44 73 C44.144375 71.7625 44.28875 70.525 44.4375 69.25 C44.78688502 66.43495501 45.20379366 63.7298503 46 61 C46.99 61 47.98 61 49 61 C49.24119531 46.7338102 49.24119531 46.7338102 48.5 32.5 C47.95490903 26.47995118 47.8163443 20.4787335 47.75 14.4375 C47.7180957 12.98923828 47.7180957 12.98923828 47.68554688 11.51171875 C47.6787793 10.14273438 47.6787793 10.14273438 47.671875 8.74609375 C47.6625293 7.92810303 47.65318359 7.1101123 47.64355469 6.26733398 C48.08029059 3.48927486 49.1773117 2.09849774 51 0 C57.4295082 0.60655738 57.4295082 0.60655738 59.8125 2.25 C62.99914036 6.94610159 63.3521233 11.51647564 63.3125 17.0625 C63.31056641 18.18760986 63.31056641 18.18760986 63.30859375 19.33544922 C63.21205055 24.98443325 62.2407256 30.03777661 60.68359375 35.4765625 C59.74660418 38.93539257 59.48169023 41.44587586 60 45 C60.680625 45.639375 61.36125 46.27875 62.0625 46.9375 C64 49 64 49 63.9375 52.9375 C62.77450786 59.1554778 59.53030452 62.71457681 55 67 C55.92683594 67.04898438 56.85367188 67.09796875 57.80859375 67.1484375 C59.00613281 67.22320312 60.20367187 67.29796875 61.4375 67.375 C63.22994141 67.47941406 63.22994141 67.47941406 65.05859375 67.5859375 C66.51458984 67.79089844 66.51458984 67.79089844 68 68 C68.33 68.66 68.66 69.32 69 70 C70.99760305 70.34740923 72.99787771 70.67966043 75 71 C79.23065091 73.82043394 79.97181997 77.13806342 81 82 C80.82593026 85.53941803 80.58107212 87.99076947 78.8125 91.0625 C77.75129003 93.07928248 77.75129003 93.07928248 78.5625 95.6875 C80.42773308 99.98564579 82.62871731 103.96419575 85 108 C85.43183594 108.83917969 85.86367188 109.67835938 86.30859375 110.54296875 C88.93228753 115.34157063 88.93228753 115.34157063 93.60546875 117.78515625 C96.10848571 118.03581098 98.48942735 118.12404015 101 118 C100.4983585 124.39592909 100.4983585 124.39592909 97.9375 127.5 C95.61620527 129.90538706 95.61620527 129.90538706 96.3125 133.25 C95.86671195 138.59945656 93.04029529 140.58973555 89.26171875 144.1796875 C87 146 87 146 84 147 C83.67 147.66 83.34 148.32 83 149 C81.2578125 149.8515625 81.2578125 149.8515625 79.125 150.625 C78.42632812 150.88539063 77.72765625 151.14578125 77.0078125 151.4140625 C75 152 75 152 72 152 C71.67 152.99 71.34 153.98 71 155 C70.01 154.67 69.02 154.34 68 154 C68 153.34 68 152.68 68 152 C65.36 152 62.72 152 60 152 C59.67 152.66 59.34 153.32 59 154 C58.443125 153.88140625 57.88625 153.7628125 57.3125 153.640625 C51.0690806 152.58599334 47.27794975 153.52624736 42 157 C41.67 157.33 41.34 157.66 41 158 C39.1875 158.1328125 39.1875 158.1328125 37 158.125 C36.278125 158.12757813 35.55625 158.13015625 34.8125 158.1328125 C33 158 33 158 32 157 C30.04469236 156.87451011 28.08429521 156.82424637 26.125 156.8125 C25.05507812 156.79832031 23.98515625 156.78414062 22.8828125 156.76953125 C19.80203566 156.7805222 19.80203566 156.7805222 17 159 C12.64792306 159.72534616 10.47308055 158.77292935 6.9375 156.4375 C1.11534333 152.8883771 -4.506574 153.98634308 -11 155 C-11 154.67 -11 154.34 -11 154 C-12.98 153.67 -14.96 153.34 -17 153 C-17 153.66 -17 154.32 -17 155 C-17.99 155 -18.98 155 -20 155 C-20 154.01 -20 153.02 -20 152 C-20.86625 152.061875 -21.7325 152.12375 -22.625 152.1875 C-26 152 -26 152 -29.0625 150.3125 C-30.031875 149.879375 -31.00125 149.44625 -32 149 C-34.87391821 150.17274994 -34.87391821 150.17274994 -37 152 C-37 151.34 -37 150.68 -37 150 C-40.24849977 151.72226496 -40.24849977 151.72226496 -41 155 C-41.99 155 -42.98 155 -44 155 C-44 154.01 -44 153.02 -44 152 C-46.64 152 -49.28 152 -52 152 C-52 152.66 -52 153.32 -52 154 C-54.96351095 154.06891886 -57.55903549 154.11891178 -60.43359375 153.34375 C-63.66922977 152.91036192 -64.69728052 153.65396482 -67.375 155.4375 C-71.50740611 157.88962197 -74.11260113 158.71089438 -79 158 C-79.67160156 157.91234375 -80.34320313 157.8246875 -81.03515625 157.734375 C-84.74572841 156.87435454 -86.4958414 155.76354455 -88.6171875 152.55078125 C-91.95846036 145.33023398 -92.62810065 138.87219483 -92 131 C-91.34 131 -90.68 131 -90 131 C-90.350625 130.236875 -90.70125 129.47375 -91.0625 128.6875 C-92.17333635 124.31821036 -91.7731175 120.91541 -91.19140625 116.48828125 C-90.82804603 113.86910024 -90.82804603 113.86910024 -92 111 C-94.97 110.505 -94.97 110.505 -98 110 C-100.08597507 104.29833481 -101.72894353 98.95524995 -100 93 C-99.96154557 91.00036972 -99.95455719 88.99948367 -100 87 C-100.61875 86.71125 -101.2375 86.4225 -101.875 86.125 C-104 85 -104 85 -106 83 C-106.125 79.375 -106.125 79.375 -106 76 C-107.11375 75.9071875 -107.11375 75.9071875 -108.25 75.8125 C-111.92561158 74.72652385 -112.89383642 73.15924537 -115 70 C-115.474375 69.01 -115.94875 68.02 -116.4375 67 C-117.87356428 63.87601405 -117.87356428 63.87601405 -120.5 61.5 C-123.21553295 58.78446705 -124.65376095 56.58997081 -126 53 C-126 49.42501271 -125.26740101 48.29885995 -122.875 45.625 C-120 44 -120 44 -116.3125 44 C-113 45 -113 45 -111.83203125 46.671875 C-110.79887162 49.56278176 -110.57461259 52.1892736 -110.375 55.25 C-110.30023438 56.32765625 -110.22546875 57.4053125 -110.1484375 58.515625 C-110.09945312 59.33546875 -110.05046875 60.1553125 -110 61 C-109.34 61 -108.68 61 -108 61 C-107.49440092 62.43554025 -106.9957251 63.8735202 -106.5 65.3125 C-106.2215625 66.11300781 -105.943125 66.91351563 -105.65625 67.73828125 C-105 70 -105 70 -105 73 C-104.34 73.33 -103.68 73.66 -103 74 C-103 74.66 -103 75.32 -103 76 C-101.77304695 78.06391032 -100.4340566 80.03549922 -99.09375 82.02734375 C-98 84 -98 84 -98 87 C-97.49210937 86.71125 -96.98421875 86.4225 -96.4609375 86.125 C-92.1947224 83.82411994 -88.96878319 82.20951176 -84 83 C-82.63669018 83.95873047 -81.29792318 84.95445077 -80 86 C-79.47713396 75.10114779 -79.58054397 66.46559896 -83.82421875 56.3046875 C-85.45195398 51.72972402 -85.69466946 47.37039451 -85.859375 42.546875 C-85.83042401 40.0081328 -85.83042401 40.0081328 -87 38 C-87.29427268 34.42326778 -87.27800554 30.83742408 -87.3125 27.25 C-87.34150391 26.26 -87.37050781 25.27 -87.40039062 24.25 C-87.4533169 18.15940677 -87.02221152 14.66481336 -83 10 C-80.12400553 10.31091832 -78.46307855 10.54467635 -76.3671875 12.60546875 C-74.53473219 15.81488334 -74.55732752 18.38650104 -74.4375 22.0625 C-74.3516451 27.37430558 -74.3516451 27.37430558 -72 32 C-71.86133316 35.5663379 -72.0049985 39.08604909 -72.125 42.65234375 C-72.00255582 45.93155204 -71.50553209 47.2141729 -70 50 C-69.76178444 54.43874998 -70.16159759 58.00916079 -73.0625 61.4375 C-76.0171445 65.34525562 -75.3310786 69.26373669 -75 74 C-74.46375 73.48308594 -73.9275 72.96617187 -73.375 72.43359375 C-67.78463174 67.7351099 -63.79982326 66.38802076 -56.6875 67 C-52.41113586 67.41620715 -48.1999341 68.09014967 -44 69 C-44 69.66 -44 70.32 -44 71 C-43.46375 70.7525 -42.9275 70.505 -42.375 70.25 C-40 70 -40 70 -36.875 71.5625 C-33.52526404 74.40249353 -32.80712644 75.72222985 -32 80 C-31.37648546 87.79393173 -31.37648546 87.79393173 -33.0703125 91.0703125 C-34.33628292 93.1606427 -34.33628292 93.1606427 -33.125 96.25 C-32.75375 97.1575 -32.3825 98.065 -32 99 C-31.01 99 -30.02 99 -29 99 C-27.71514394 95.71295284 -27.71514394 95.71295284 -27 92 C-27.474375 91.38125 -27.94875 90.7625 -28.4375 90.125 C-30.33727877 87.54130088 -30.13428641 86.73906202 -29.8125 83.625 C-29.55887265 82.08040945 -29.28894689 80.53837463 -29 79 C-28.855625 77.906875 -28.71125 76.81375 -28.5625 75.6875 C-26.39862292 71.96563142 -24.00487504 71.15234244 -20.01953125 69.74609375 C-14.74003442 68.44158677 -9.42025124 68.16991383 -4 68 C-5.70419056 65.06362501 -7.37204413 62.55536189 -9.5625 59.9375 C-13.11428571 55.65714286 -13.11428571 55.65714286 -14 53 C-13.62925373 49.94134325 -12.76554463 48.64831694 -11 46 C-10.34 46 -9.68 46 -9 46 C-9.30964862 43.58293696 -9.62261115 41.16638113 -9.9375 38.75 C-10.02451172 38.06808594 -10.11152344 37.38617188 -10.20117188 36.68359375 C-10.71143352 32.75450876 -10.71143352 32.75450876 -11.56640625 28.890625 C-12.39334006 25.2848956 -12.01107038 21.55351907 -11.9375 17.875 C-11.86719602 15.0945633 -11.86719602 15.0945633 -12.640625 12.9140625 C-13.1628307 10.13274953 -12.15047869 8.78156971 -10.75 6.375 C-10.09257812 5.21097656 -10.09257812 5.21097656 -9.421875 4.0234375 C-6.85624177 0.37234406 -4.32276614 -0.75648408 0 0 Z " fill="#C1F9A9" transform="translate(226,110)"/>
<path d="M0 0 C2.87599447 0.31091832 4.53692145 0.54467635 6.6328125 2.60546875 C8.46526781 5.81488334 8.44267248 8.38650104 8.5625 12.0625 C8.6483549 17.37430558 8.6483549 17.37430558 11 22 C11.13866684 25.5663379 10.9950015 29.08604909 10.875 32.65234375 C10.99744418 35.93155204 11.49446791 37.2141729 13 40 C13.23821556 44.43874998 12.83840241 48.00916079 9.9375 51.4375 C6.9828555 55.34525562 7.6689214 59.26373669 8 64 C8.53625 63.48308594 9.0725 62.96617187 9.625 62.43359375 C15.21536826 57.7351099 19.20017674 56.38802076 26.3125 57 C30.58886414 57.41620715 34.8000659 58.09014967 39 59 C39 59.66 39 60.32 39 61 C39.53625 60.7525 40.0725 60.505 40.625 60.25 C43 60 43 60 46.125 61.5625 C49.47473596 64.40249353 50.19287356 65.72222985 51 70 C51.62305059 77.78813237 51.62305059 77.78813237 49.93359375 81.07421875 C48.67273905 83.14768466 48.67273905 83.14768466 49.8125 86.1875 C50.73189167 88.85735069 50.73189167 88.85735069 52 90 C52.13888415 96.38867104 49.18390179 100.78347802 45.41015625 105.796875 C42.58450502 108.37980417 41.27598441 108.70898498 37.5 108.6875 C34.90625 108.38671875 34.90625 108.38671875 33 108 C34.03615835 112.97868928 34.03615835 112.97868928 37.0625 116.875 C39.35693779 119.39148015 39.17819242 120.03696976 39.25 123.3125 C39.51645288 127.54769835 40.72462674 129.24434792 43.875 132.0625 C47.00798194 134.64457506 47.00798194 134.64457506 51 135 C50.75 137.375 50.75 137.375 50 140 C47.9375 141.3125 47.9375 141.3125 46 142 C46 141.34 46 140.68 46 140 C42.75150023 141.72226496 42.75150023 141.72226496 42 145 C41.01 145 40.02 145 39 145 C39 144.01 39 143.02 39 142 C36.36 142 33.72 142 31 142 C31 142.66 31 143.32 31 144 C28.03648905 144.06891886 25.44096451 144.11891178 22.56640625 143.34375 C19.33077023 142.91036192 18.30271948 143.65396482 15.625 145.4375 C11.49259389 147.88962197 8.88739887 148.71089438 4 148 C3.32839844 147.91234375 2.65679687 147.8246875 1.96484375 147.734375 C-1.74572841 146.87435454 -3.4958414 145.76354455 -5.6171875 142.55078125 C-8.95846036 135.33023398 -9.62810065 128.87219483 -9 121 C-8.34 121 -7.68 121 -7 121 C-7.350625 120.236875 -7.70125 119.47375 -8.0625 118.6875 C-9.17333635 114.31821036 -8.7731175 110.91541 -8.19140625 106.48828125 C-7.82804603 103.86910024 -7.82804603 103.86910024 -9 101 C-11.97 100.505 -11.97 100.505 -15 100 C-17.08597507 94.29833481 -18.72894353 88.95524995 -17 83 C-16.96154557 81.00036972 -16.95455719 78.99948367 -17 77 C-17.61875 76.71125 -18.2375 76.4225 -18.875 76.125 C-21 75 -21 75 -23 73 C-23.125 69.375 -23.125 69.375 -23 66 C-24.11375 65.9071875 -24.11375 65.9071875 -25.25 65.8125 C-28.92561158 64.72652385 -29.89383642 63.15924537 -32 60 C-32.7115625 58.515 -32.7115625 58.515 -33.4375 57 C-34.87356428 53.87601405 -34.87356428 53.87601405 -37.5 51.5 C-40.21553295 48.78446705 -41.65376095 46.58997081 -43 43 C-43 39.42501271 -42.26740101 38.29885995 -39.875 35.625 C-37 34 -37 34 -33.3125 34 C-30 35 -30 35 -28.83203125 36.671875 C-27.79887162 39.56278176 -27.57461259 42.1892736 -27.375 45.25 C-27.30023438 46.32765625 -27.22546875 47.4053125 -27.1484375 48.515625 C-27.09945312 49.33546875 -27.05046875 50.1553125 -27 51 C-26.34 51 -25.68 51 -25 51 C-24.49440092 52.43554025 -23.9957251 53.8735202 -23.5 55.3125 C-23.2215625 56.11300781 -22.943125 56.91351563 -22.65625 57.73828125 C-22 60 -22 60 -22 63 C-21.34 63.33 -20.68 63.66 -20 64 C-20 64.66 -20 65.32 -20 66 C-18.77304695 68.06391032 -17.4340566 70.03549922 -16.09375 72.02734375 C-15 74 -15 74 -15 77 C-14.49210937 76.71125 -13.98421875 76.4225 -13.4609375 76.125 C-9.1947224 73.82411994 -5.96878319 72.20951176 -1 73 C0.36330982 73.95873047 1.70207682 74.95445077 3 76 C3.52286604 65.10114779 3.41945603 56.46559896 -0.82421875 46.3046875 C-2.45195398 41.72972402 -2.69466946 37.37039451 -2.859375 32.546875 C-2.83042401 30.0081328 -2.83042401 30.0081328 -4 28 C-4.29427268 24.42326778 -4.27800554 20.83742408 -4.3125 17.25 C-4.34150391 16.26 -4.37050781 15.27 -4.40039062 14.25 C-4.4533169 8.15940677 -4.02221152 4.66481336 0 0 Z " fill="#EBBA15" transform="translate(143,120)"/>
<path d="M0 0 C2.4375 0.0625 2.4375 0.0625 5 1 C8.33909867 5.14723812 8.32429129 8.85142377 7.99609375 13.94140625 C7.95694351 14.70492905 7.91779327 15.46845184 7.87745667 16.25511169 C7.79020069 17.87015488 7.69471769 19.48477191 7.59155273 21.09887695 C7.43956566 23.52946573 7.32237828 25.95992065 7.20898438 28.39257812 C6.68039813 38.17537028 5.4501873 47.0996254 1 56 C0.95426399 57.74940225 0.96175777 59.5004179 1 61.25 C1.04250913 65.29368098 0.85861702 69.02889628 0 73 C-0.66 71.68 -1.32 70.36 -2 69 C-7.89271393 69.27385487 -7.89271393 69.27385487 -12.875 72.1875 C-15.07121852 75.0942598 -16.10178043 77.48877804 -17 81 C-17.66 81 -18.32 81 -19 81 C-19.061875 81.598125 -19.12375 82.19625 -19.1875 82.8125 C-20 85 -20 85 -22.1875 86.8125 C-25.59289113 88.25033181 -27.47078888 87.90282145 -31 87 C-30.71125 87.58265625 -30.4225 88.1653125 -30.125 88.765625 C-27.88837165 93.70484593 -26.77405626 97.54910717 -27 103 C-27.22226885 108.38307375 -26.16523601 112.09851136 -23.875 116.94140625 C-23 119 -23 119 -23 122 C-22.34 122 -21.68 122 -21 122 C-20.71125 121.38125 -20.4225 120.7625 -20.125 120.125 C-18.34893866 116.77021747 -17.2279372 116.07459763 -13.5625 114.875 C-11.25489049 113.93768232 -10.24513013 113.45495345 -9.05078125 111.23828125 C-8.59554915 109.85679656 -8.1609832 108.46835037 -7.74609375 107.07421875 C-6.52265959 103.67294369 -4.50896355 101.57329595 -2 99 C-1.34 99 -0.68 99 0 99 C-0.39753821 97.53633658 -0.81881384 96.0791065 -1.25 94.625 C-1.48203125 93.81289062 -1.7140625 93.00078125 -1.953125 92.1640625 C-3.2214892 89.54214546 -4.32423308 89.00617682 -7 88 C-6.09098826 86.4122595 -5.17242076 84.82998803 -4.25 83.25 C-3.73953125 82.36828125 -3.2290625 81.4865625 -2.703125 80.578125 C-0.25911838 76.87848195 2.31865734 74.45422844 6 72 C10.81824716 72.32851685 14.67162527 74.00894762 19 76 C19.11601562 75.43410156 19.23203125 74.86820312 19.3515625 74.28515625 C20.06720321 71.7631694 21.12357551 69.73936263 22.375 67.4375 C24.78456845 62.78454023 26.12307108 58.2613657 27.2265625 53.15234375 C27.60941406 52.08693359 27.60941406 52.08693359 28 51 C28.99 50.67 29.98 50.34 31 50 C31.07347656 48.89591797 31.07347656 48.89591797 31.1484375 47.76953125 C31.22320312 46.79371094 31.29796875 45.81789062 31.375 44.8125 C31.44460938 43.84957031 31.51421875 42.88664062 31.5859375 41.89453125 C32.00871571 38.93907225 32.64323832 36.65718723 34 34 C36.6875 32.8125 36.6875 32.8125 40 33 C42.61587127 34.72993491 44.80918378 36.76381184 47 39 C46.52655474 44.05008278 44.02540998 48.03898636 41 52 C40.01 52.66 39.02 53.32 38 54 C36.89047927 55.84817393 36.89047927 55.84817393 36 57.9375 C34.69143196 60.85451625 33.4693446 62.9319239 31 65 C29.515 65.495 29.515 65.495 28 66 C27.31060191 68.32671854 26.64533078 70.66067594 26 73 C24.5 74.9375 24.5 74.9375 23 76 C22.34 76 21.68 76 21 76 C21.01160156 77.00160156 21.02320313 78.00320312 21.03515625 79.03515625 C21.04454398 80.37760228 21.05364312 81.72005036 21.0625 83.0625 C21.07410156 84.37347656 21.08570313 85.68445313 21.09765625 87.03515625 C20.84996511 97.09141661 20.84996511 97.09141661 18.1875 99.9375 C16 101 16 101 12 101 C12.01160156 102.03640625 12.02320313 103.0728125 12.03515625 104.140625 C12.04453837 105.51041486 12.05363812 106.88020668 12.0625 108.25 C12.07087891 108.93191406 12.07925781 109.61382812 12.08789062 110.31640625 C12.10428392 113.69342554 12.05628768 116.77291639 11 120 C11.66 120 12.32 120 13 120 C13.78521717 128.70718596 12.44342461 136.37009967 8 144 C5.57980552 145.89539441 4.05678255 146.29458864 1 147 C0.67 147.33 0.34 147.66 0 148 C-5.89200888 148.57764793 -8.21777938 147.22067919 -13 144 C-17.41580478 143.07410545 -20.8759272 142.89497895 -25.3125 143.5625 C-29 144 -29 144 -32 142 C-32.99 141.67 -33.98 141.34 -35 141 C-35 141.99 -35 142.98 -35 144 C-35.99 144 -36.98 144 -38 144 C-38 143.01 -38 142.02 -38 141 C-38.928125 141.04125 -39.85625 141.0825 -40.8125 141.125 C-44 141 -44 141 -47 139 C-47.1875 136.375 -47.1875 136.375 -47 134 C-45.9790625 133.9690625 -45.9790625 133.9690625 -44.9375 133.9375 C-40.51263758 132.52530986 -37.63736948 129.79781205 -35 126 C-34.74984127 122.41642759 -34.74984127 122.41642759 -35 119 C-33.71937515 117.2925002 -32.38232443 115.62626404 -31 114 C-30.1156065 111.68211154 -29.5702872 109.42372058 -29 107 C-29.61746094 107.15082031 -30.23492187 107.30164063 -30.87109375 107.45703125 C-33.9871099 107.88862557 -35.96601527 107.91607849 -39 107 C-43.34135599 102.40099677 -46.98997603 97.03007192 -49 91 C-48.34 90.01 -47.68 89.02 -47 88 C-46.29187186 85.67891331 -45.61975848 83.34622853 -45 81 C-45.66 80.34 -46.32 79.68 -47 79 C-47.88304887 72.72691256 -47.08849769 67.49066255 -44 62 C-40.5647952 59.70986347 -39.014669 59.82157027 -35 60 C-35 59.34 -35 58.68 -35 58 C-34.05898438 57.93941406 -33.11796875 57.87882812 -32.1484375 57.81640625 C-30.90320313 57.73261719 -29.65796875 57.64882812 -28.375 57.5625 C-27.14523437 57.48128906 -25.91546875 57.40007812 -24.6484375 57.31640625 C-21.05614017 57.08758183 -21.05614017 57.08758183 -17.83203125 56.28515625 C-14.26112458 55.92560289 -13.13222816 56.73928967 -10.3125 58.875 C-7.76054321 60.77023561 -6.04291447 61.98569518 -3 63 C-3.24047662 56.80772708 -3.41562052 52.58437948 -8 48 C-9.50934217 44.98131566 -9.17510672 42.32702771 -9 39 C-8.34 38.01 -7.68 37.02 -7 36 C-6.90882482 33.44424576 -6.90357859 30.98543574 -7 28.4375 C-7.09430095 25.93145232 -7.09317662 23.5128571 -7 21 C-6.34 20.34 -5.68 19.68 -5 19 C-4.87102035 16.53062733 -4.87102035 16.53062733 -5.0625 13.75 C-5.15532774 9.0281624 -4.68284281 6.02426422 -2 2 C-1.34 1.34 -0.68 0.68 0 0 Z " fill="#CF0000" transform="translate(356,121)"/>
<path d="M0 0 C3.35546875 -0.48828125 3.35546875 -0.48828125 7.1875 -0.3125 C8.45980469 -0.26738281 9.73210937 -0.22226563 11.04296875 -0.17578125 C12.01878906 -0.11777344 12.99460937 -0.05976563 14 0 C14.495 0.99 14.495 0.99 15 2 C16.99760305 2.34740923 18.99787771 2.67966043 21 3 C25.23065091 5.82043394 25.97181997 9.13806342 27 14 C26.82593026 17.53941803 26.58107212 19.99076947 24.8125 23.0625 C23.75129003 25.07928248 23.75129003 25.07928248 24.5625 27.6875 C26.42773308 31.98564579 28.62871731 35.96419575 31 40 C31.43183594 40.83917969 31.86367188 41.67835938 32.30859375 42.54296875 C34.93228753 47.34157063 34.93228753 47.34157063 39.60546875 49.78515625 C42.10848571 50.03581098 44.48942735 50.12404015 47 50 C46.4983585 56.39592909 46.4983585 56.39592909 43.9375 59.5 C41.61620527 61.90538706 41.61620527 61.90538706 42.3125 65.25 C41.86671195 70.59945656 39.04029529 72.58973555 35.26171875 76.1796875 C33 78 33 78 30 79 C29.67 79.66 29.34 80.32 29 81 C27.2578125 81.8515625 27.2578125 81.8515625 25.125 82.625 C24.42632812 82.88539063 23.72765625 83.14578125 23.0078125 83.4140625 C21 84 21 84 18 84 C17.505 85.485 17.505 85.485 17 87 C16.01 86.67 15.02 86.34 14 86 C14 85.34 14 84.68 14 84 C11.36 84 8.72 84 6 84 C5.67 84.66 5.34 85.32 5 86 C4.443125 85.88140625 3.88625 85.7628125 3.3125 85.640625 C-2.9309194 84.58599334 -6.72205025 85.52624736 -12 89 C-12.33 89.33 -12.66 89.66 -13 90 C-14.8125 90.1328125 -14.8125 90.1328125 -17 90.125 C-17.721875 90.12757813 -18.44375 90.13015625 -19.1875 90.1328125 C-21 90 -21 90 -22 89 C-24.32817964 88.63239269 -26.6618385 88.29758419 -29 88 C-28.6390625 87.02160156 -28.278125 86.04320312 -27.90625 85.03515625 C-25.33922382 77.86468184 -23.20078931 71.72570332 -24 64 C-24.33 63.67 -24.66 63.34 -25 63 C-25.07317596 59.76196361 -24.99610888 56.53501583 -24.9375 53.296875 C-24.99294681 50.37205569 -25.31806593 47.83428847 -26 45 C-23.06176804 43.47647232 -20.07745908 42.21465217 -17 41 C-16.83079995 38.62515638 -16.66457137 36.25016522 -16.5 33.875 C-16.45230469 33.20984375 -16.40460938 32.5446875 -16.35546875 31.859375 C-16.14265102 28.75831658 -16.00893822 25.73370262 -16.11328125 22.625 C-16.05720703 21.325625 -16.05720703 21.325625 -16 20 C-14.34211215 18.65576661 -12.67423683 17.32381517 -11 16 C-10.13239191 14.06957088 -10.13239191 14.06957088 -9.5 11.9375 C-8.20753347 7.95729056 -6.73549594 6.96113537 -3 5 C-2.60167969 4.154375 -2.20335937 3.30875 -1.79296875 2.4375 C-1.20128906 1.633125 -0.60960937 0.82875 0 0 Z " fill="#2B9CE0" transform="translate(280,178)"/>
<path d="M0 0 C6.4295082 0.60655738 6.4295082 0.60655738 8.8125 2.25 C11.99914036 6.94610159 12.3521233 11.51647564 12.3125 17.0625 C12.31121094 17.81257324 12.30992187 18.56264648 12.30859375 19.33544922 C12.21205055 24.98443325 11.2407256 30.03777661 9.68359375 35.4765625 C8.74660418 38.93539257 8.48169023 41.44587586 9 45 C9.680625 45.639375 10.36125 46.27875 11.0625 46.9375 C13 49 13 49 12.9375 52.9375 C12.02879806 57.79590643 10.17532099 60.85560851 6.625 64.3125 C3.89928544 67.10311253 2.18197158 69.84023828 0.30859375 73.23046875 C-1 75 -1 75 -3.09375 76.02734375 C-3.7228125 76.34832031 -4.351875 76.66929687 -5 77 C-5.309375 78.11375 -5.61875 79.2275 -5.9375 80.375 C-7 84 -7 84 -9.55078125 85.8359375 C-12.29053996 87.791292 -12.29053996 87.791292 -12.453125 90.953125 C-12.35257813 92.58507812 -12.35257813 92.58507812 -12.25 94.25 C-12.20875 95.39726562 -12.1675 96.54453125 -12.125 97.7265625 C-12.08375 98.80679688 -12.0425 99.88703125 -12 101 C-12.17553433 108.08719873 -12.17553433 108.08719873 -14.75 110.9375 C-17.17310095 112.08174212 -19.35113796 112.63210249 -22 113 C-21.835 113.68578125 -21.67 114.3715625 -21.5 115.078125 C-20.93771308 118.36398919 -20.93970669 121.41879453 -21 124.75 C-21.0373632 126.83299826 -21.04706896 128.91719845 -21 131 C-20.67 131.33 -20.34 131.66 -20 132 C-19.16444125 140.21632767 -21.01230289 147.75383743 -25 155 C-28.66909511 158.08230968 -32.39895187 158.69980348 -37 159.5625 C-40.10341527 158.98060964 -41.45947298 158.12875894 -44.0625 156.4375 C-49.88465667 152.8883771 -55.506574 153.98634308 -62 155 C-62 154.67 -62 154.34 -62 154 C-63.98 153.67 -65.96 153.34 -68 153 C-68 153.66 -68 154.32 -68 155 C-68.99 155 -69.98 155 -71 155 C-71 154.01 -71 153.02 -71 152 C-71.886875 152.0825 -72.77375 152.165 -73.6875 152.25 C-77.69008159 151.94791837 -79.12835434 150.70272533 -82 148 C-81.67 147.01 -81.34 146.02 -81 145 C-79.00458132 144.31974363 -77.00382009 143.65509503 -75 143 C-72.10713446 141.61963135 -72.10713446 141.61963135 -70 139 C-69.36200396 136.49112366 -68.98084846 133.99707517 -68.59765625 131.4375 C-68 129 -68 129 -65.4375 126.125 C-61.19666528 120.6880324 -61.56954118 113.56162942 -62.3125 106.875 C-62.76126124 103.88989674 -62.76126124 103.88989674 -65 102 C-65 100.68 -65 99.36 -65 98 C-64.071875 98.04125 -63.14375 98.0825 -62.1875 98.125 C-58.84190281 98.27136339 -58.84190281 98.27136339 -56 96 C-55.01 96 -54.02 96 -53 96 C-52.34 97.32 -51.68 98.64 -51 100 C-52.32 100.99 -53.64 101.98 -55 103 C-54.43539062 102.85691406 -53.87078125 102.71382813 -53.2890625 102.56640625 C-50.98953289 101.99741002 -48.68571651 101.45915005 -46.375 100.9375 C-45.21097656 100.67259766 -45.21097656 100.67259766 -44.0234375 100.40234375 C-42 100 -42 100 -40 100 C-39.71253906 99.42378906 -39.42507812 98.84757812 -39.12890625 98.25390625 C-38.41176327 96.82210175 -37.69083993 95.39217964 -36.96484375 93.96484375 C-36.62582031 93.29582031 -36.28679687 92.62679687 -35.9375 91.9375 C-35.59589844 91.26589844 -35.25429687 90.59429687 -34.90234375 89.90234375 C-33.88509619 87.85671686 -33.88509619 87.85671686 -33 85 C-29.5953203 83.20308571 -26.81355957 82.46787541 -23 83 C-20.2460656 84.18172558 -17.61831166 85.54466052 -15 87 C-14.73445313 86.45730469 -14.46890625 85.91460937 -14.1953125 85.35546875 C-13.84210938 84.64003906 -13.48890625 83.92460937 -13.125 83.1875 C-12.77695312 82.47980469 -12.42890625 81.77210938 -12.0703125 81.04296875 C-11 79 -11 79 -9 76 C-9 75.01 -9 74.02 -9 73 C-8.34 73 -7.68 73 -7 73 C-6.855625 71.7625 -6.71125 70.525 -6.5625 69.25 C-6.21311498 66.43495501 -5.79620634 63.7298503 -5 61 C-4.01 61 -3.02 61 -2 61 C-1.75880469 46.7338102 -1.75880469 46.7338102 -2.5 32.5 C-3.04509097 26.47995118 -3.1836557 20.4787335 -3.25 14.4375 C-3.2819043 12.98923828 -3.2819043 12.98923828 -3.31445312 11.51171875 C-3.31896484 10.5990625 -3.32347656 9.68640625 -3.328125 8.74609375 C-3.3374707 7.92810303 -3.34681641 7.1101123 -3.35644531 6.26733398 C-2.91970941 3.48927486 -1.8226883 2.09849774 0 0 Z " fill="#C2FAAB" transform="translate(277,110)"/>
<path d="M0 0 C2.87599447 0.31091832 4.53692145 0.54467635 6.6328125 2.60546875 C8.46526781 5.81488334 8.44267248 8.38650104 8.5625 12.0625 C8.6483549 17.37430558 8.6483549 17.37430558 11 22 C11.13866684 25.5663379 10.9950015 29.08604909 10.875 32.65234375 C10.99744418 35.93155204 11.49446791 37.2141729 13 40 C13.23821556 44.43874998 12.83840241 48.00916079 9.9375 51.4375 C6.9828555 55.34525562 7.6689214 59.26373669 8 64 C8.53625 63.48308594 9.0725 62.96617187 9.625 62.43359375 C15.21536826 57.7351099 19.20017674 56.38802076 26.3125 57 C30.58886414 57.41620715 34.8000659 58.09014967 39 59 C39 59.66 39 60.32 39 61 C39.53625 60.7525 40.0725 60.505 40.625 60.25 C43 60 43 60 46.125 61.5625 C49.47473596 64.40249353 50.19287356 65.72222985 51 70 C51.62305059 77.78813237 51.62305059 77.78813237 49.93359375 81.07421875 C48.67273905 83.14768466 48.67273905 83.14768466 49.8125 86.1875 C50.73189167 88.85735069 50.73189167 88.85735069 52 90 C52.13888415 96.38867104 49.18390179 100.78347802 45.41015625 105.796875 C42.58450502 108.37980417 41.27598441 108.70898498 37.5 108.6875 C34.90625 108.38671875 34.90625 108.38671875 33 108 C32.505 109.98 32.505 109.98 32 112 C31.17404404 105.20260567 30.51616174 99.53641646 33 93 C33.37125 91.865625 33.7425 90.73125 34.125 89.5625 C34.558125 88.2940625 34.558125 88.2940625 35 87 C33.88625 87.5878125 33.88625 87.5878125 32.75 88.1875 C31.38875 88.5896875 31.38875 88.5896875 30 89 C27.8125 87.625 27.8125 87.625 26 86 C25.34 86 24.68 86 24 86 C23.21625 86.804375 22.4325 87.60875 21.625 88.4375 C19 91 19 91 17.0625 92.0625 C13.47311174 91.95373066 11.70961707 90.26723061 9 88 C3.95846223 81.65089762 2.81768266 76.23899688 3.16625977 68.13964844 C3.48477938 60.00114736 2.30598718 53.99330401 -0.82421875 46.375 C-2.42902658 41.76850842 -2.69386543 37.39394111 -2.859375 32.546875 C-2.83042401 30.0081328 -2.83042401 30.0081328 -4 28 C-4.29427268 24.42326778 -4.27800554 20.83742408 -4.3125 17.25 C-4.34150391 16.26 -4.37050781 15.27 -4.40039062 14.25 C-4.4533169 8.15940677 -4.02221152 4.66481336 0 0 Z " fill="#EABA15" transform="translate(143,120)"/>
<path d="M0 0 C7.6748744 3.97448853 11.80892795 8.520778 14.5 16.8125 C15.66335027 25.34007696 14.44188141 32.34895579 9.6875 39.5625 C3.90192109 45.51338116 -2.52174455 48.07773357 -10.75 48.25 C-18.21110352 48.105372 -24.0994671 46.31907863 -29.37890625 40.875 C-35.31692576 33.32012216 -36.57246264 26.33198796 -35.5 16.8125 C-32.99557966 8.84779841 -28.86166921 4.34806725 -21.73828125 0.20703125 C-15.19625215 -2.61022374 -6.74166897 -2.27759087 0 0 Z " fill="#F6F6F6" transform="translate(375.5,283.1875)"/>
<path d="M0 0 C26.56321839 0 26.56321839 0 32 5 C38.43577244 12.63997103 39.68680325 19.1599825 39 29 C37.5241048 36.11218789 33.66437906 40.00171571 28 44.25 C19.48218965 49.21872271 9.72256739 47 0 47 C0 31.49 0 15.98 0 0 Z " fill="#F7F7F6" transform="translate(157,283)"/>
<path d="M0 0 C4.19591738 0.72621647 5.44480633 2.29041058 8.01953125 5.546875 C9.25 7.5625 9.25 7.5625 10.1875 11.375 C10.538125 12.426875 10.88875 13.47875 11.25 14.5625 C14.66119068 15.89426975 14.66119068 15.89426975 18.25 16.5625 C20.1875 18.0625 20.1875 18.0625 21.25 19.5625 C21.25 20.2225 21.25 20.8825 21.25 21.5625 C21.91 21.5625 22.57 21.5625 23.25 21.5625 C23.43175781 20.88703125 23.61351562 20.2115625 23.80078125 19.515625 C24.05214844 18.62359375 24.30351562 17.7315625 24.5625 16.8125 C24.80613281 15.93078125 25.04976563 15.0490625 25.30078125 14.140625 C26.27125331 11.50477495 27.46005644 9.70842674 29.25 7.5625 C29.43175781 8.10519531 29.61351562 8.64789063 29.80078125 9.20703125 C30.05214844 9.92246094 30.30351562 10.63789063 30.5625 11.375 C30.80613281 12.08269531 31.04976563 12.79039062 31.30078125 13.51953125 C32.12977404 15.63593528 32.12977404 15.63593528 33.84375 17.05859375 C35.7027269 19.04666626 35.48892815 20.13823618 35.4375 22.8125 C35.7501822 27.05802945 36.96438292 28.79829146 40.125 31.625 C43.25798194 34.20707506 43.25798194 34.20707506 47.25 34.5625 C47 36.9375 47 36.9375 46.25 39.5625 C43.68689172 41.3566758 42.41880694 41.5625 39.25 41.5625 C38.92 42.5525 38.59 43.5425 38.25 44.5625 C37.26 44.2325 36.27 43.9025 35.25 43.5625 C35.25 42.9025 35.25 42.2425 35.25 41.5625 C32.61 41.5625 29.97 41.5625 27.25 41.5625 C26.755 42.5525 26.755 42.5525 26.25 43.5625 C25.693125 43.44390625 25.13625 43.3253125 24.5625 43.203125 C18.3190806 42.14849334 14.52794975 43.08874736 9.25 46.5625 C8.92 46.8925 8.59 47.2225 8.25 47.5625 C6.4375 47.6953125 6.4375 47.6953125 4.25 47.6875 C3.528125 47.69007813 2.80625 47.69265625 2.0625 47.6953125 C0.25 47.5625 0.25 47.5625 -0.75 46.5625 C-3.07817964 46.19489269 -5.4118385 45.86008419 -7.75 45.5625 C-7.3890625 44.58410156 -7.028125 43.60570312 -6.65625 42.59765625 C-4.08922382 35.42718184 -1.95078931 29.28820332 -2.75 21.5625 C-3.08 21.2325 -3.41 20.9025 -3.75 20.5625 C-3.82317596 17.32446361 -3.74610888 14.09751583 -3.6875 10.859375 C-3.63919859 7.62129247 -3.63919859 7.62129247 -4.375 4.765625 C-4.560625 3.67507812 -4.560625 3.67507812 -4.75 2.5625 C-2.75 0.5625 -2.75 0.5625 0 0 Z " fill="#2B9DE1" transform="translate(258.75,220.4375)"/>
<path d="M0 0 C2.87599447 0.31091832 4.53692145 0.54467635 6.6328125 2.60546875 C8.46526781 5.81488334 8.44267248 8.38650104 8.5625 12.0625 C8.6483549 17.37430558 8.6483549 17.37430558 11 22 C11.13866684 25.5663379 10.9950015 29.08604909 10.875 32.65234375 C10.99625708 35.89975993 11.42098454 37.26987021 13 40 C13.63459454 45.71135082 12.52631355 48.51196457 9 53 C8.67 53.33 8.34 53.66 8 54 C7.76712992 55.68183948 7.58735834 57.3712416 7.4375 59.0625 C7.35371094 59.98160156 7.26992188 60.90070313 7.18359375 61.84765625 C7.09271484 62.91306641 7.09271484 62.91306641 7 64 C9.64 62.68 12.28 61.36 15 60 C15 60.99 15 61.98 15 63 C14.01 63.495 14.01 63.495 13 64 C13.495 64.99 13.495 64.99 14 66 C13.07421875 67.8046875 13.07421875 67.8046875 11.6875 69.875 C9.9317895 72.52114248 8.369437 75.13254037 7 78 C5.88625 77.319375 4.7725 76.63875 3.625 75.9375 C-1.38400348 73.37913801 -5.61233465 73.9842926 -11 75 C-11.50423054 64.38874833 -11.58059716 55.89440435 -7.1796875 46.0234375 C-4.38910912 38.87142535 -4.97673259 31.05303485 -5.04296875 23.48803711 C-5.04941406 22.74948486 -5.05585938 22.01093262 -5.0625 21.25 C-5.06894531 20.52240479 -5.07539063 19.79480957 -5.08203125 19.04516602 C-5.09454142 12.20757774 -4.99842054 5.22562148 0 0 Z " fill="#2B9DE2" transform="translate(255,120)"/>
<path d="M0 0 C4.50215788 1.12553947 4.50215788 1.12553947 6.98828125 3.66015625 C7.52646484 4.20285156 8.06464844 4.74554688 8.61914062 5.3046875 C9.17794922 5.88476562 9.73675781 6.46484375 10.3125 7.0625 C10.89064453 7.65160156 11.46878906 8.24070312 12.06445312 8.84765625 C15.6517279 12.52774016 19.13928624 16.27523355 22.4375 20.21875 C24.51181087 22.58346439 26.77574285 24.77574285 29 27 C29.33 18.42 29.66 9.84 30 1 C32.97 1 35.94 1 39 1 C39 16.51 39 32.02 39 48 C35 48 35 48 32.01171875 45.4375 C30.89267718 44.3023764 29.78511721 43.15585296 28.6875 42 C28.10935547 41.40638672 27.53121094 40.81277344 26.93554688 40.20117188 C23.31223607 36.45558961 19.79996093 32.62763462 16.43359375 28.6484375 C15.04503515 27.05178429 13.5893956 25.58845118 12.0625 24.125 C10 22 10 22 10 20 C9.34 20 8.68 20 8 20 C8 29.24 8 38.48 8 48 C5.36 48 2.72 48 0 48 C0 32.16 0 16.32 0 0 Z " fill="#F7F7F7" transform="translate(294,282)"/>
<path d="M0 0 C2.4375 1.375 2.4375 1.375 3.125 3.6875 C3.228125 4.574375 3.33125 5.46125 3.4375 6.375 C3.80875 7.2 4.18 8.025 4.5625 8.875 C5.83955524 12.52372927 4.99470927 14.84707353 3.6953125 18.41015625 C1.09766861 25.62171049 0.27674284 31.12385122 3.4375 38.375 C6.04499724 51.93398567 6.04499724 51.93398567 2.75 56.9375 C0.06265045 58.60801458 -1.45406165 58.72038204 -4.5625 58.375 C-4.68625 57.405625 -4.81 56.43625 -4.9375 55.4375 C-5.14375 54.426875 -5.35 53.41625 -5.5625 52.375 C-6.2225 52.045 -6.8825 51.715 -7.5625 51.375 C-7.5625 53.355 -7.5625 55.335 -7.5625 57.375 C-10.42544425 58.24978852 -11.94452522 58.66039199 -14.7109375 57.3828125 C-17.46059775 54.40111341 -17.06976761 51.40174132 -16.9375 47.5625 C-16.93621094 46.86318359 -16.93492187 46.16386719 -16.93359375 45.44335938 C-16.85996025 41.07034776 -16.1573842 37.43876494 -14.5625 33.375 C-13.9025 33.375 -13.2425 33.375 -12.5625 33.375 C-13.46231305 24.98206085 -13.46231305 24.98206085 -16.8125 17.375 C-17.39 16.385 -17.9675 15.395 -18.5625 14.375 C-17.8125 12.375 -17.8125 12.375 -16.5625 10.375 C-16.583125 9.199375 -16.60375 8.02375 -16.625 6.8125 C-16.5625 3.375 -16.5625 3.375 -15.34375 1.66796875 C-13.05808307 0.00885526 -11.79034884 0.09370369 -9 0.25 C-5.66822215 0.41412699 -3.08331339 -0.75202766 0 0 Z " fill="#C0F7A9" transform="translate(201.5625,121.625)"/>
<path d="M0 0 C2.97 0 5.94 0 9 0 C9.01458252 0.97348389 9.02916504 1.94696777 9.04418945 2.94995117 C9.10233296 6.57515476 9.17956377 10.1997476 9.26245117 13.82446289 C9.29562532 15.39076801 9.32368058 16.95719051 9.34643555 18.52368164 C9.38012116 20.78061763 9.43244049 23.03648526 9.48828125 25.29296875 C9.49467117 25.98899704 9.5010611 26.68502533 9.50764465 27.40214539 C9.64968282 32.14035203 10.5891149 35.5891149 14 39 C20.35860161 39.48996277 20.35860161 39.48996277 26 37 C27.20161511 33.39515466 27.23017136 30.02710143 27.31640625 26.26953125 C27.33718735 25.51911057 27.35796844 24.76868988 27.37937927 23.99552917 C27.44469926 21.60127816 27.50367792 19.20691861 27.5625 16.8125 C27.60570193 15.18813987 27.64931676 13.56379067 27.69335938 11.93945312 C27.80036263 7.95974629 27.90167937 3.97993042 28 0 C30.97 0 33.94 0 37 0 C37.09920549 5.15944873 37.17162646 10.31833689 37.21972656 15.47851562 C37.2397871 17.23219479 37.26704251 18.98580753 37.30175781 20.73925781 C37.35052302 23.26644318 37.37302392 25.79274091 37.390625 28.3203125 C37.41127014 29.09867462 37.43191528 29.87703674 37.45318604 30.6789856 C37.45568255 36.79636941 35.44853139 40.01917917 31.5625 44.75 C26.73014688 48.6158825 21.1488701 48.48483404 15.234375 48.37109375 C10.58831513 47.83803133 7.14928919 46.50732903 4 43 C0.55438839 37.5025223 -0.57389611 32.99218696 -0.390625 26.5625 C-0.38213531 25.41418701 -0.38213531 25.41418701 -0.37347412 24.24267578 C-0.35130835 21.82777979 -0.30115539 19.41443777 -0.25 17 C-0.22990915 15.35028204 -0.21166294 13.70054052 -0.1953125 12.05078125 C-0.15150943 8.03326695 -0.08262602 4.01689574 0 0 Z " fill="#F6F6F6" transform="translate(111,283)"/>
<path d="M0 0 C1.96615694 2.34426404 3.78628358 4.60662822 5.25 7.30078125 C7.89421018 12.22514761 7.89421018 12.22514761 12.609375 14.80078125 C15.10802758 15.03723566 17.49481276 15.12377407 20 15 C19.4983585 21.39592909 19.4983585 21.39592909 16.9375 24.5 C14.61620527 26.90538706 14.61620527 26.90538706 15.3125 30.25 C14.86671195 35.59945656 12.04029529 37.58973555 8.26171875 41.1796875 C6 43 6 43 3 44 C2.67 44.66 2.34 45.32 2 46 C1.01 46 0.02 46 -1 46 C-1 44.68 -1 43.36 -1 42 C-2.485 42.495 -2.485 42.495 -4 43 C-12.52283399 36.68105035 -12.52283399 36.68105035 -13.6796875 32.60546875 C-13.76688951 31.05891554 -13.81881492 29.50989081 -13.83203125 27.9609375 C-14.08352903 25.02484719 -15.91711552 23.9527042 -18 22 C-18.75 18.25 -18.75 18.25 -19 15 C-18.05640625 15.08314453 -18.05640625 15.08314453 -17.09375 15.16796875 C-14.08143009 15.19065188 -11.86400682 14.97904347 -9 14 C-4.98158507 9.98158507 -1.80208743 5.40626229 0 0 Z " fill="#884B8E" transform="translate(307,213)"/>
<path d="M0 0 C0.99 0 1.98 0 3 0 C4.26207703 1.93246436 5.43640871 3.92276047 6.5625 5.9375 C9.30839395 10.48420978 9.30839395 10.48420978 13.74609375 13.01953125 C16.22991377 13.22739704 18.52378128 13.26385937 21 13 C21.1484375 15.33203125 21.1484375 15.33203125 21 18 C19.75268913 19.41143072 18.50167234 20.82007723 17.21875 22.19921875 C15.68288191 24.46856231 15.481786 26.29572428 15.125 29 C14.35267521 33.86932392 12.74729778 36.09092467 8.8203125 39.015625 C6.43898248 40.30338286 4.65306043 40.48237462 2 40 C2.33 40.99 2.66 41.98 3 43 C2.01 43 1.02 43 0 43 C0 42.01 0 41.02 0 40 C-1.485 40.495 -1.485 40.495 -3 41 C-11.53667137 34.67079113 -11.53667137 34.67079113 -12.64453125 30.67578125 C-12.71437552 29.15214138 -12.75385679 27.62678211 -12.76171875 26.1015625 C-13.05261275 23.53597281 -13.82325448 22.61861089 -15.5625 20.75 C-18 18 -18 18 -18.15234375 15.328125 C-18.10207031 14.55984375 -18.05179688 13.7915625 -18 13 C-17.3709375 13.06703125 -16.741875 13.1340625 -16.09375 13.203125 C-13.0234779 13.25861185 -10.89627931 13.07529004 -8 12 C-5.45907032 9.02639115 -3.5979861 6.00098975 -1.69140625 2.58984375 C-1.13324219 1.73519531 -0.57507813 0.88054687 0 0 Z " fill="#B7E8F3" transform="translate(194,215)"/>
<path d="M0 0 C3.51511455 3.62850534 4.14615586 7.44240314 4.25 12.375 C4.16929637 17.29792143 3.13370885 20.84880174 -0.4296875 24.44140625 C-5.04924172 28.47489762 -8.71091775 29.37580066 -14.65234375 29.26953125 C-18.47557799 28.83059088 -21.16760263 27.60492504 -24 25 C-27.47130693 20.4503285 -28.61355347 15.84120039 -28.3203125 10.171875 C-27.60862669 5.34629807 -26.04159646 2.01488886 -22.5625 -1.375 C-15.12745295 -6.08990788 -7.03610731 -4.73397082 0 0 Z " fill="#1F211E" transform="translate(377,294)"/>
<path d="M0 0 C3.87132059 4.50732326 3.38151795 9.26082771 3.25 14.875 C3.24484375 15.74769531 3.2396875 16.62039062 3.234375 17.51953125 C3.1900297 21.20573448 3.04323002 24.71276515 2.4934082 28.3659668 C2.00353046 31.9739976 1.88617212 35.38872801 1.90234375 39.02734375 C1.90556641 40.31318359 1.90878906 41.59902344 1.91210938 42.92382812 C1.92046198 44.26171945 1.92892689 45.59961007 1.9375 46.9375 C1.94252341 48.30273274 1.94708483 49.66796726 1.95117188 51.03320312 C1.96291149 54.35551457 1.97933321 57.67773408 2 61 C3.485 61.495 3.485 61.495 5 62 C5.33 64.31 5.66 66.62 6 69 C2.39544685 69.17164539 0.33566626 69.2056625 -3 68 C-7.4800268 63.79651807 -11.63967103 58.73042435 -14 53 C-13.62925373 49.94134325 -12.76554463 48.64831694 -11 46 C-10.34 46 -9.68 46 -9 46 C-9.30964862 43.58293696 -9.62261115 41.16638113 -9.9375 38.75 C-10.02451172 38.06808594 -10.11152344 37.38617188 -10.20117188 36.68359375 C-10.71143352 32.75450876 -10.71143352 32.75450876 -11.56640625 28.890625 C-12.39334006 25.2848956 -12.01107038 21.55351907 -11.9375 17.875 C-11.86719602 15.0945633 -11.86719602 15.0945633 -12.640625 12.9140625 C-13.1628307 10.13274953 -12.15047869 8.78156971 -10.75 6.375 C-10.31171875 5.59898438 -9.8734375 4.82296875 -9.421875 4.0234375 C-6.85624177 0.37234406 -4.32276614 -0.75648408 0 0 Z " fill="#C0F8A9" transform="translate(226,110)"/>
<path d="M0 0 C9.24 0 18.48 0 28 0 C28 2.31 28 4.62 28 7 C21.73 7 15.46 7 9 7 C9 12.61 9 18.22 9 24 C14.61 24 20.22 24 26 24 C26 26.31 26 28.62 26 31 C25 32 25 32 21.40234375 32.09765625 C19.91403133 32.0909822 18.42573568 32.07902183 16.9375 32.0625 C15.79958008 32.05573242 15.79958008 32.05573242 14.63867188 32.04882812 C12.75908129 32.0370068 10.87953101 32.01907078 9 32 C9 34.31 9 36.62 9 39 C15.27 39 21.54 39 28 39 C28 41.64 28 44.28 28 47 C18.76 47 9.52 47 0 47 C0 31.49 0 15.98 0 0 Z " fill="#F5F5F5" transform="translate(258,283)"/>
<path d="M0 0 C3.54075407 1.18025136 4.04498083 1.90455298 6 5 C6.495 6.216875 6.99 7.43375 7.5 8.6875 C7.995 9.780625 8.49 10.87375 9 12 C9.99 12.33 10.98 12.66 12 13 C12 13.66 12 14.32 12 15 C15.28696233 15.79953138 16.71023192 16.09658936 20 15 C20.31159547 18.42755017 19.95759608 20.08820014 18.4375 23.25 C17.02927038 26.23928742 16.99705879 27.85432921 17.6875 31.0625 C18.83764356 37.82252743 14.9037221 44.08314018 12 50 C11.34 50 10.68 50 10 50 C9.2575 49.21625 8.515 48.4325 7.75 47.625 C5.228679 44.7780351 5.228679 44.7780351 1.875 44.25 C-1 43 -1 43 -1.87109375 41.09375 C-2.33763539 39.51225293 -2.78384209 37.92463402 -3.2109375 36.33203125 C-4.40898709 32.79126093 -6.44836354 30.68956276 -9 28 C-8.34 27.67 -7.68 27.34 -7 27 C-6.68288613 24.57377972 -6.48588047 22.24956039 -6.375 19.8125 C-6.30023438 18.49894531 -6.22546875 17.18539062 -6.1484375 15.83203125 C-5.95379455 12.08073976 -5.95379455 12.08073976 -6.12890625 8.65234375 C-6 6 -6 6 -3.5625 3.75 C-2.716875 3.1725 -1.87125 2.595 -1 2 C-0.67 1.34 -0.34 0.68 0 0 Z " fill="#22201D" transform="translate(270,192)"/>
<path d="M0 0 C1.10988281 -0.01417969 2.21976563 -0.02835937 3.36328125 -0.04296875 C6.7836836 0.19416843 9.49723443 0.96641499 12.6875 2.1875 C12.73004356 4.18704746 12.72830783 6.18791636 12.6875 8.1875 C12.3575 8.5175 12.0275 8.8475 11.6875 9.1875 C9.35416667 8.85416667 7.02083333 8.52083333 4.6875 8.1875 C1.96405562 8.01116187 -0.57222051 8.04816375 -3.3125 8.1875 C-5.64478504 10.05546812 -5.64478504 10.05546812 -5.35546875 13.06640625 C-4.15082651 16.67130945 -2.87268025 17.50720491 0.45068359 19.20288086 C1.40322021 19.65932983 1.40322021 19.65932983 2.375 20.125 C13.23483093 25.86778398 13.23483093 25.86778398 15.6875 31.1875 C16.55779596 35.56925097 16.21495609 38.974351 14.4375 43.0625 C11.81085292 46.25200003 9.61030404 47.87989865 5.6875 49.1875 C-1.87248661 49.68136847 -8.61885475 50.01244014 -15.3125 46.1875 C-14.9825 43.8775 -14.6525 41.5675 -14.3125 39.1875 C-13.219375 39.3525 -12.12625 39.5175 -11 39.6875 C-5.79786728 40.3400973 -0.54733112 40.50030186 4.6875 40.1875 C6.10327477 39.00325674 6.10327477 39.00325674 5.75 35.625 C5.7190625 33.9234375 5.7190625 33.9234375 5.6875 32.1875 C4.965625 31.91421875 4.24375 31.6409375 3.5 31.359375 C-4.29608185 28.11100756 -11.42860477 23.95529046 -15.3125 16.1875 C-16.10561581 9.50266673 -16.10561581 9.50266673 -14.078125 6.140625 C-9.76925485 0.97851324 -6.76323132 0.03900364 0 0 Z " fill="#F7F7F7" transform="translate(235.3125,281.8125)"/>
<path d="M0 0 C2.6875 -0.3125 2.6875 -0.3125 6 0 C9.69613353 2.94010622 11.56878913 5.54734395 13 10 C13.77979529 18.11189648 12.88888987 25.36923136 10.671875 33.16015625 C9.66451533 37.41800786 9.5259623 41.65161572 10 46 C10.33 46.33 10.66 46.66 11 47 C11.73163839 54.68220312 9.85700885 59.40175987 6 66 C5.67 65.34 5.34 64.68 5 64 C4.360625 63.690625 3.72125 63.38125 3.0625 63.0625 C1 62 1 62 -1 59 C-1.31884766 56.07104492 -1.31884766 56.07104492 -1.4140625 52.48046875 C-1.43356461 51.83336945 -1.45306671 51.18627014 -1.47315979 50.51956177 C-1.53378984 48.40900705 -1.58007238 46.29844308 -1.625 44.1875 C-1.66149117 42.73656281 -1.69835833 41.28563503 -1.7355957 39.8347168 C-1.84062204 35.55675133 -1.92236685 31.27853612 -2 27 C-2.02336426 25.81825195 -2.04672852 24.63650391 -2.07080078 23.41894531 C-2.12499093 20.38338632 -2.16173846 17.34841883 -2.1875 14.3125 C-2.20055176 13.43037842 -2.21360352 12.54825684 -2.22705078 11.6394043 C-2.23307256 7.29899368 -2.03613748 3.95155534 0 0 Z " fill="#EAB915" transform="translate(164,110)"/>
<path d="M0 0 C1.7183118 3.41917692 2.24895868 6.21894453 2.23046875 10.01953125 C2.22853516 10.95990234 2.22660156 11.90027344 2.22460938 12.86914062 C2.21236328 13.84044922 2.20011719 14.81175781 2.1875 15.8125 C2.18685547 16.77220703 2.18621094 17.73191406 2.18554688 18.72070312 C2.16017721 22.85032012 2.08112633 26.88466209 1.47265625 30.97265625 C1.00734931 34.21737457 0.98925238 37.32476064 1.078125 40.6015625 C1.11679687 42.07882813 1.11679687 42.07882813 1.15625 43.5859375 C1.21900742 45.62032384 1.29726324 47.65428829 1.390625 49.6875 C1.56530089 58.00643917 1.56530089 58.00643917 -1.515625 61.7109375 C-2.74539063 62.84402344 -2.74539063 62.84402344 -4 64 C-8.20503378 62.59832207 -9.0003054 60.93043421 -11 57 C-11.52188047 52.45822942 -11.44863458 48.34590373 -10 44 C-9.61187041 39.43947733 -10.23357031 35.95916158 -11.5 31.5625 C-14.09757277 21.74120104 -14.75231304 11.19618268 -10 2 C-6.59776982 -0.86503595 -4.19261902 -1.81302444 0 0 Z " fill="#D00000" transform="translate(339,111)"/>
<path d="M0 0 C1.9375 1.0625 1.9375 1.0625 3 3 C2.6875 6.6875 2.6875 6.6875 2 10 C2.99 10.33 3.98 10.66 5 11 C3.94124926 14.40312738 2.99097846 17.01353231 1 20 C0.50416542 22.04925854 0.07619626 24.11524815 -0.3125 26.1875 C-1.71020418 33.0619226 -3.65212182 39.64129795 -5.81640625 46.30859375 C-6.95414227 49.85697838 -7.99545849 53.41235173 -9 57 C-11.25 57.75 -11.25 57.75 -14 58 C-16.90280867 55.84664375 -17.89783074 54.65457594 -18.4609375 51.046875 C-18.2960206 44.7200629 -17.89878816 39.05238726 -16 33 C-15.34 33 -14.68 33 -14 33 C-13.18164188 23.57294408 -13.18164188 23.57294408 -13.1875 14.125 C-13.25672946 9.49528012 -11.68524133 5.74496868 -9 2 C-5.53076119 -0.31282587 -4.07794425 -0.42478586 0 0 Z " fill="#874B8D" transform="translate(315,122)"/>
<path d="M0 0 C0.5775 0.309375 1.155 0.61875 1.75 0.9375 C5.37094106 2.64738884 7.12331765 3.29222745 11 2 C11.28383032 5.21674358 11.12666932 6.7783287 9.5 9.625 C7.95263737 13.10656592 7.9438572 14.28285803 8.1875 17.9375 C8.47461899 25.63654251 5.11508532 32.13012434 2 39 C1.34 38.01 0.68 37.02 0 36 C-3.03809432 32.41938883 -5.59801967 31.43542837 -10 30 C-12 27 -12 27 -12.75 24.25 C-13.96047053 21.10277662 -14.93714423 19.82298106 -17.1875 17.4375 C-19.97663829 14.32706391 -19.97663829 14.32706391 -20.1875 11.375 C-18.6408014 8.28160279 -16.55874224 6.29630714 -14 4 C-13.13375 4.391875 -12.2675 4.78375 -11.375 5.1875 C-7.98275736 6.33353835 -7.98275736 6.33353835 -4.75 4.8125 C-1.80274396 3.12603992 -1.80274396 3.12603992 0 0 Z " fill="#21221C" transform="translate(167,205)"/>
<path d="M0 0 C0.66 1.32 1.32 2.64 2 4 C0.68 4.99 -0.64 5.98 -2 7 C-1.14921875 6.78730469 -1.14921875 6.78730469 -0.28125 6.5703125 C0.4715625 6.38210937 1.224375 6.19390625 2 6 C2.7321875 5.81179687 3.464375 5.62359375 4.21875 5.4296875 C4.9715625 5.24664062 5.724375 5.06359375 6.5 4.875 C7.2528125 4.68679687 8.005625 4.49859375 8.78125 4.3046875 C11.16316419 3.97759365 12.72956292 4.26726803 15 5 C15 7.64 15 10.28 15 13 C15.99 13.33 16.98 13.66 18 14 C17.59007812 14.49628906 17.18015625 14.99257812 16.7578125 15.50390625 C13.07548498 20.12161606 13.07548498 20.12161606 11.25 25.6875 C9.740432 29.68785519 8.79698364 29.94473013 5.0625 31.75 C4.18722656 32.11609375 3.31195313 32.4821875 2.41015625 32.859375 C0.05046086 33.97611901 -1.30114992 35.04884545 -3 37 C-7.00980426 28.93265572 -9.79552984 22.79097125 -8.91796875 13.62109375 C-9.02069551 10.33872927 -10.27771038 8.74587259 -12 6 C-12 4.68 -12 3.36 -12 2 C-10.6078125 2.061875 -10.6078125 2.061875 -9.1875 2.125 C-5.35552496 1.97472647 -3.80827584 0 0 0 Z " fill="#20231E" transform="translate(224,206)"/>
<path d="M0 0 C13.07692308 0 13.07692308 0 18 4 C21.32120607 9.35678399 21.93524173 14.77190671 21 21 C18.38679161 26.13308791 15.46062759 29.1797908 10 31 C6.7 31 3.4 31 0 31 C0 20.77 0 10.54 0 0 Z " fill="#1E201D" transform="translate(166,291)"/>
<path d="M0 0 C6.4295082 0.60655738 6.4295082 0.60655738 8.8125 2.25 C11.99897322 6.94585527 12.35274141 11.51661517 12.3125 17.0625 C12.31048584 17.81257324 12.30847168 18.56264648 12.30639648 19.33544922 C12.20601575 24.96278103 11.3155999 30.04598808 9.734375 35.4609375 C8.81592638 38.63642476 8.37255616 41.72150575 8 45 C6.6078125 44.9071875 6.6078125 44.9071875 5.1875 44.8125 C2.01919312 44.66853545 2.01919312 44.66853545 0.30078125 46.51171875 C-0.34310547 47.24841797 -0.34310547 47.24841797 -1 48 C-2.24885477 36.63741442 -3.21253347 25.31155547 -3.3125 13.875 C-3.32990234 12.94606934 -3.34730469 12.01713867 -3.36523438 11.06005859 C-3.36045307 4.62083176 -3.36045307 4.62083176 -1.48046875 1.3828125 C-0.99191406 0.92648438 -0.50335938 0.47015625 0 0 Z " fill="#2A9CE0" transform="translate(277,110)"/>
<path d="M0 0 C4.6610122 2.77441203 6.3569432 5.89787626 8 11 C8.4057971 17.1884058 8.4057971 17.1884058 7 20 C7.144375 20.556875 7.28875 21.11375 7.4375 21.6875 C9.18929691 28.88933174 7.35821711 36.11944062 5 43 C3.39453125 45.36328125 3.39453125 45.36328125 2 47 C-1.16131866 39.97092276 -3.26625079 32.78470517 -5.16088867 25.33447266 C-6.28181167 21.06213625 -7.63896199 17.7762385 -10 14 C-9.1875 12.125 -9.1875 12.125 -8 10 C-8.020625 8.824375 -8.04125 7.64875 -8.0625 6.4375 C-8 3 -8 3 -6.8125 1.0625 C-4.27628251 -0.42424818 -2.90345463 -0.48390911 0 0 Z " fill="#B7E8F1" transform="translate(193,122)"/>
<path d="M0 0 C0.33 0 0.66 0 1 0 C1.03440186 0.83547363 1.06880371 1.67094727 1.10424805 2.53173828 C1.24546406 5.70504808 1.40645753 8.87663671 1.57983398 12.04833984 C1.68447602 14.06667358 1.76736808 16.0860982 1.84960938 18.10546875 C2.31483264 26.31767074 3.86006808 33.20289399 6.87963867 40.91064453 C8.32386701 44.89305145 8.69298562 48.15215856 8.8125 52.375 C8.86019531 53.64085937 8.90789062 54.90671875 8.95703125 56.2109375 C8.97121094 57.13132813 8.98539062 58.05171875 9 59 C9.66 58.34 10.32 57.68 11 57 C12.32 57 13.64 57 15 57 C13.80023567 60.08510827 12.49997444 63.05047042 11 66 C9.88625 65.319375 8.7725 64.63875 7.625 63.9375 C2.61599652 61.37913801 -1.61233465 61.9842926 -7 63 C-7.50423054 52.38874833 -7.58059716 43.89440435 -3.1796875 34.0234375 C0.13766973 25.52133653 -0.89389703 15.48573425 -1.03588867 6.47167969 C-1.05886519 4.64789195 -1.03392776 2.82361688 -1 1 C-0.67 0.67 -0.34 0.34 0 0 Z " fill="#202522" transform="translate(251,132)"/>
<path d="M0 0 C2.97 0 5.94 0 9 0 C9 15.51 9 31.02 9 47 C6.03 47 3.06 47 0 47 C0 31.49 0 15.98 0 0 Z " fill="#F5F5F5" transform="translate(203,283)"/>
<path d="M0 0 C0.33 1.32 0.66 2.64 1 4 C1.66 4 2.32 4 3 4 C2.41328641 7.89745455 1.25781975 10.74068527 -0.75 14.125 C-1.23984375 14.97320312 -1.7296875 15.82140625 -2.234375 16.6953125 C-4.24190932 19.31576659 -6.04465424 20.56213764 -9 22 C-10.66621616 22.03874921 -12.33394172 22.0450286 -14 22 C-14.66 22.66 -15.32 23.32 -16 24 C-17.32 24 -18.64 24 -20 24 C-20 23.34 -20 22.68 -20 22 C-19.34 22 -18.68 22 -18 22 C-18 20.68 -18 19.36 -18 18 C-17.69169075 15.99598989 -17.36270588 13.99488234 -17 12 C-16.34 12 -15.68 12 -15 12 C-15.12375 10.9171875 -15.12375 10.9171875 -15.25 9.8125 C-14.91355075 6.02744595 -13.66723417 4.66723417 -11 2 C-6.95658325 -0.58090431 -4.62771261 -1.49720114 0 0 Z " fill="#874B8C" transform="translate(354,190)"/>
<path d="M0 0 C4.34159496 0.50483662 7.49408652 1.31900734 11 4 C11 4.99 11 5.98 11 7 C11.99 7.33 12.98 7.66 14 8 C15.57788321 11.65404533 16.64424796 15.02713756 16 19 C13.6701122 21.3298878 11.32770694 22.90212627 8 23 C2.46829136 20.29299364 -0.3698233 16.39603712 -3 11 C-4.0625 7.8125 -4.0625 7.8125 -4 5 C-2.0625 2.125 -2.0625 2.125 0 0 Z " fill="#B9E9F1" transform="translate(150,189)"/>
<path d="M0 0 C0.99 0.33 1.98 0.66 3 1 C3 2.98 3 4.96 3 7 C4.11375 6.79375 5.2275 6.5875 6.375 6.375 C8.169375 6.189375 8.169375 6.189375 10 6 C10.66 6.66 11.32 7.32 12 8 C9.69 8.66 7.38 9.32 5 10 C2.45368082 19.057258 2.45368082 19.057258 4.5 27.875 C4.995 28.57625 5.49 29.2775 6 30 C5.34 30 4.68 30 4 30 C4.061875 30.94875 4.12375 31.8975 4.1875 32.875 C4.125625 33.90625 4.06375 34.9375 4 36 C3.01 36.66 2.02 37.32 1 38 C-1.71372659 35.99420208 -2.03939963 34.82724777 -2.8125 31.4375 C-2.9053125 29.7359375 -2.9053125 29.7359375 -3 28 C-2.34 27.34 -1.68 26.68 -1 26 C-0.06918172 20.06452237 -1.09871685 15.18086276 -4 10 C-6.02946853 8.07663031 -6.02946853 8.07663031 -8 7 C-5.07175348 6.02391783 -3.04386724 5.91773332 0 6 C0 4.02 0 2.04 0 0 Z " fill="#282A1F" transform="translate(194,173)"/>
<path d="M0 0 C0.33 0.99 0.66 1.98 1 3 C1.66 3 2.32 3 3 3 C3.53570005 5.35163241 4.05367829 7.70503348 4.5625 10.0625 C4.71396484 10.71927734 4.86542969 11.37605469 5.02148438 12.05273438 C5.99049623 16.62737174 6.03679309 20.36049573 5 25 C3.25 27 3.25 27 1 28 C-0.67681468 27.72218455 -2.34666493 27.3941726 -4 27 C-6.12725643 17.05876202 -3.3567287 9.25713763 0 0 Z " fill="#CC0102" transform="translate(313,152)"/>
<path d="M0 0 C4.37704104 4.37704104 5.97374865 11.41570064 6.03515625 17.4609375 C5.7862332 20.33207739 5.46388032 23.15621198 5 26 C2.75 26.75 2.75 26.75 0 27 C-2.2890625 25.453125 -2.2890625 25.453125 -4 23 C-5.10687881 15.90847135 -4.13309823 8.79925062 -2 2 C-1.34 2 -0.68 2 0 2 C0 1.34 0 0.68 0 0 Z " fill="#2B9BDF" transform="translate(301,153)"/>
<path d="M0 0 C1.7208877 2.58133154 2.4651263 4.12794206 3.2890625 7.01171875 C3.50820312 7.76904297 3.72734375 8.52636719 3.953125 9.30664062 C4.17484375 10.09232422 4.3965625 10.87800781 4.625 11.6875 C4.85445312 12.48478516 5.08390625 13.28207031 5.3203125 14.10351562 C5.88486236 16.0676787 6.44304988 18.03366847 7 20 C6.34 20 5.68 20 5 20 C5 21.98 5 23.96 5 26 C2.13705575 26.87478852 0.61797478 27.28539199 -2.1484375 26.0078125 C-4.89809775 23.02611341 -4.50726761 20.02674132 -4.375 16.1875 C-4.37371094 15.48818359 -4.37242187 14.78886719 -4.37109375 14.06835938 C-4.29746025 9.69534776 -3.5948842 6.06376494 -2 2 C-1.34 2 -0.68 2 0 2 C0 1.34 0 0.68 0 0 Z " fill="#E8B918" transform="translate(189,153)"/>
<path d="M0 0 C2.1875 1 2.1875 1 3.5 3.0625 C3.8403125 4.0215625 3.8403125 4.0215625 4.1875 5 C3.69378906 5.30292969 3.20007813 5.60585937 2.69140625 5.91796875 C-1.51147215 8.548514 -1.51147215 8.548514 -3.75 12.8125 C-3.770625 13.534375 -3.79125 14.25625 -3.8125 15 C-5.4625 15 -7.1125 15 -8.8125 15 C-9.1425 15.66 -9.4725 16.32 -9.8125 17 C-9.1525 17 -8.4925 17 -7.8125 17 C-7.8125 17.66 -7.8125 18.32 -7.8125 19 C-10.1225 19 -12.4325 19 -14.8125 19 C-15.20789521 14.51885428 -13.96503394 11.89111905 -11.8125 8 C-11.565 7.29875 -11.3175 6.5975 -11.0625 5.875 C-8.52188893 2.0640834 -4.53273565 0 0 0 Z " fill="#B8EAF1" transform="translate(238.8125,189)"/>
<path d="M0 0 C-0.60852077 6.23733787 -3.07679589 10.36449807 -6.6875 15.3125 C-10.15124358 17.84009667 -13.83079499 18.29524115 -18 19 C-19.010625 19.20625 -20.02125 19.4125 -21.0625 19.625 C-21.701875 19.74875 -22.34125 19.8725 -23 20 C-21.375 17 -21.375 17 -19 14 C-15.75 13.625 -15.75 13.625 -13 14 C-13 13.34 -13 12.68 -13 12 C-13.66 12 -14.32 12 -15 12 C-14.67 11.01 -14.34 10.02 -14 9 C-12.35 9.33 -10.7 9.66 -9 10 C-9.144375 9.278125 -9.28875 8.55625 -9.4375 7.8125 C-9 5 -9 5 -7.51171875 3.5546875 C-2.60625 0 -2.60625 0 0 0 Z " fill="#EAC022" transform="translate(244,194)"/>
<path d="M0 0 C6.64615385 4.18461538 6.64615385 4.18461538 8.4375 8.3125 C8.623125 9.199375 8.80875 10.08625 9 11 C10.98 10.67 12.96 10.34 15 10 C14.67 11.32 14.34 12.64 14 14 C16.475 14.495 16.475 14.495 19 15 C17.16998474 17.02608832 15.54607258 18.70876129 13.125 20 C9.48133141 20 7.7450533 18.29688133 5 16 C1.58822865 11.70335747 -0.73381539 7.58987686 -1 2 C-0.67 1.34 -0.34 0.68 0 0 Z " fill="#C6F7A6" transform="translate(147,192)"/>
<path d="M0 0 C3.125 0.25 3.125 0.25 5.0625 1.3125 C6.74176907 4.37469653 5.81121125 6.94370941 5.125 10.25 C6.115 10.58 7.105 10.91 8.125 11.25 C7.06624926 14.65312738 6.11597846 17.26353231 4.125 20.25 C3.73112212 22.57387947 3.39013915 24.90793749 3.125 27.25 C2.465 26.92 1.805 26.59 1.125 26.25 C0.42790537 22.84198181 0.14128833 19.54463775 -0.05078125 16.0703125 C-0.11652344 14.93335938 -0.18226563 13.79640625 -0.25 12.625 C-0.29898437 11.53960937 -0.34796875 10.45421875 -0.3984375 9.3359375 C-0.91512867 5.99015038 -1.95762154 4.00815404 -3.875 1.25 C-2.875 0.25 -2.875 0.25 0 0 Z " fill="#2B98DB" transform="translate(311.875,121.75)"/>
<path d="M0 0 C2.25 1.4375 2.25 1.4375 2.9375 3.75 C3.040625 4.636875 3.14375 5.52375 3.25 6.4375 C3.62125 7.2625 3.9925 8.0875 4.375 8.9375 C5.99329114 13.56118898 3.83919938 17.82770812 2.1875 22.25 C1.82527344 23.22582031 1.46304688 24.20164063 1.08984375 25.20703125 C0.81269531 25.94308594 0.53554687 26.67914063 0.25 27.4375 C-1.69723595 24.51664607 -2.30175352 22.84417322 -2.75 19.4375 C-2.42 19.1075 -2.09 18.7775 -1.75 18.4375 C-1.13738466 12.4338697 -2.61249867 8.41856963 -5.75 3.4375 C-6.41 2.7775 -7.07 2.1175 -7.75 1.4375 C-4.80181084 -0.07871157 -3.29643456 -0.67427071 0 0 Z " fill="#E6B81A" transform="translate(201.75,121.5625)"/>
<path d="M0 0 C0 4 0 4 -0.9375 6.6875 C-2.24806755 10.77338707 -2.64030985 14.74051142 -3 19 C-2.34 19.33 -1.68 19.66 -1 20 C-1.66 22.31 -2.32 24.62 -3 27 C-3.66 27 -4.32 27 -5 27 C-5.268125 25.783125 -5.53625 24.56625 -5.8125 23.3125 C-6.50400584 20.45057435 -7.13616021 18.78603396 -8.75 16.25 C-9.1625 15.5075 -9.575 14.765 -10 14 C-9.1875 12.125 -9.1875 12.125 -8 10 C-8.020625 8.824375 -8.04125 7.64875 -8.0625 6.4375 C-8 3 -8 3 -6.8125 1.0625 C-4.43958382 -0.32851983 -2.70313576 -0.21917317 0 0 Z " fill="#BFF5AB" transform="translate(193,122)"/>
<path d="M0 0 C-1.01739781 6.25920824 -3.5483007 11.97734808 -8.5 16.0625 C-11.19027149 17.07135181 -13.15553331 17.07687748 -16 17 C-16.66 17.66 -17.32 18.32 -18 19 C-19.32 19 -20.64 19 -22 19 C-22 18.34 -22 17.68 -22 17 C-21.34 17 -20.68 17 -20 17 C-20 16.34 -20 15.68 -20 15 C-19.34 15 -18.68 15 -18 15 C-18 14.34 -18 13.68 -18 13 C-16.35 12.67 -14.7 12.34 -13 12 C-13.66 10.68 -14.32 9.36 -15 8 C-12.69 8.33 -10.38 8.66 -8 9 C-8.12375 8.2575 -8.2475 7.515 -8.375 6.75 C-8 4 -8 4 -5.125 1.6875 C-2 0 -2 0 0 0 Z " fill="#2F9ADE" transform="translate(356,195)"/>
<path d="M0 0 C1.36125 0.37125 1.36125 0.37125 2.75 0.75 C2.316875 1.49830078 2.316875 1.49830078 1.875 2.26171875 C-1.2386785 8.28365946 -1.58736425 13.19837421 -1.29296875 19.9296875 C-1.25 22.75 -1.25 22.75 -2.25 25.75 C-2.91 25.75 -3.57 25.75 -4.25 25.75 C-4.54003906 24.86248047 -4.54003906 24.86248047 -4.8359375 23.95703125 C-6.19414719 19.8353355 -7.57050585 15.7549476 -9.25 11.75 C-8.59 11.09 -7.93 10.43 -7.25 9.75 C-7.29125 8.80125 -7.3325 7.8525 -7.375 6.875 C-7.25 3.75 -7.25 3.75 -5.625 1.3125 C-3.25 -0.25 -3.25 -0.25 0 0 Z " fill="#CC0202" transform="translate(304.25,122.25)"/>
<path d="M0 0 C3.54075407 1.18025136 4.04498083 1.90455298 6 5 C6.495 6.19625 6.99 7.3925 7.5 8.625 C8.73188728 12.20768469 8.73188728 12.20768469 12 14 C11.01 14.33 10.02 14.66 9 15 C8.34 15.66 7.68 16.32 7 17 C5.02 16.34 3.04 15.68 1 15 C1 14.34 1 13.68 1 13 C-0.32 12.67 -1.64 12.34 -3 12 C-3.66 9.69 -4.32 7.38 -5 5 C-3.35 3.35 -1.7 1.7 0 0 Z " fill="#864D8C" transform="translate(270,192)"/>
<path d="M0 0 C3.87634055 0.53204674 6.66675857 1.74754411 10.1875 3.4375 C10.5175 2.4475 10.8475 1.4575 11.1875 0.4375 C12.5075 0.7675 13.8275 1.0975 15.1875 1.4375 C14.4375 6.1875 14.4375 6.1875 12.1875 8.4375 C8.13488713 8.78240322 6.63995824 8.73913882 3.1875 6.4375 C0.89035813 6.41110171 0.89035813 6.41110171 -1.5 6.8125 C-2.30824219 6.92335938 -3.11648438 7.03421875 -3.94921875 7.1484375 C-4.87154297 7.29152344 -4.87154297 7.29152344 -5.8125 7.4375 C-6.1425 6.4475 -6.4725 5.4575 -6.8125 4.4375 C-4.62707638 1.74774786 -3.48238572 0.54170445 0 0 Z " fill="#F1F2F1" transform="translate(308.8125,270.5625)"/>
<path d="M0 0 C2.5 0.25 2.5 0.25 4.5 2.25 C4.75 5.25 4.75 5.25 4.5 8.25 C2.5 10.25 2.5 10.25 0 10.5 C-2.5 10.25 -2.5 10.25 -4.5 8.25 C-4.75 5.25 -4.75 5.25 -4.5 2.25 C-2.5 0.25 -2.5 0.25 0 0 Z " fill="#CFD0CF" transform="translate(227.5,351.75)"/>
<path d="M0 0 C0.99 0.33 1.98 0.66 3 1 C3 2.65 3 4.3 3 6 C4.98 6 6.96 6 9 6 C8.01 6.495 8.01 6.495 7 7 C7.33 7.66 7.66 8.32 8 9 C10.52733235 9.65555119 10.52733235 9.65555119 13 10 C11.48111881 11.74671337 10.23306099 12.89123821 8.125 13.875 C4.92836418 14.0630374 3.44946754 12.98605476 1 11 C-0.26659034 7.39508903 -0.08824882 3.79469913 0 0 Z " fill="#CF0505" transform="translate(264,198)"/>
<path d="M0 0 C3 1 3 1 4.9375 3 C6.22270311 6.62880878 5.71390787 7.39958099 4.1875 10.8125 C3.47863803 12.21875369 2.75557831 13.61828508 2 15 C-0.95673096 12.61553955 -1.93937684 11.22632646 -2.9375 7.5 C-3 4 -3 4 -1.5625 1.5625 C-1.046875 1.046875 -0.53125 0.53125 0 0 Z " fill="#202729" transform="translate(306,197)"/>
<path d="M0 0 C2.14576637 -0.02685938 4.29162645 -0.04633088 6.4375 -0.0625 C7.63246094 -0.07410156 8.82742187 -0.08570313 10.05859375 -0.09765625 C13 0 13 0 14 1 C14.07179964 2.51928038 14.08392007 4.04167482 14.0625 5.5625 C14.05347656 6.38878906 14.04445312 7.21507812 14.03515625 8.06640625 C14.02355469 8.70449219 14.01195312 9.34257812 14 10 C13.67 10 13.34 10 13 10 C13 7.36 13 4.72 13 2 C11.68 2.33 10.36 2.66 9 3 C8.67 5.31 8.34 7.62 8 10 C7.34 10 6.68 10 6 10 C6 7.36 6 4.72 6 2 C5.01 2.33 4.02 2.66 3 3 C2.67 5.31 2.34 7.62 2 10 C1.34 10 0.68 10 0 10 C0 6.7 0 3.4 0 0 Z " fill="#CACBCA" transform="translate(234,352)"/>
<path d="M0 0 C0.33 0.66 0.66 1.32 1 2 C1.99 2.33 2.98 2.66 4 3 C4.33 5.31 4.66 7.62 5 10 C2.03 9.67 -0.94 9.34 -4 9 C-4.33 7.68 -4.66 6.36 -5 5 C-2.5625 2.25 -2.5625 2.25 0 0 Z " fill="#2F9EDD" transform="translate(227,169)"/>
<path d="M0 0 C0 0.66 0 1.32 0 2 C-1.134375 1.979375 -2.26875 1.95875 -3.4375 1.9375 C-6.81575674 1.58422523 -6.81575674 1.58422523 -8 3 C-8.04092937 5.33297433 -8.04241723 7.66705225 -8 10 C-5.36 10.33 -2.72 10.66 0 11 C-0.33 11.66 -0.66 12.32 -1 13 C-7.34507042 13.35915493 -7.34507042 13.35915493 -9.9375 11.9375 C-11.63902633 8.8347167 -11.42519574 6.46230815 -11 3 C-7.9816718 -1.82932511 -5.20382316 -1.20088227 0 0 Z " fill="#C7C7C7" transform="translate(267,349)"/>
<path d="M0 0 C0 0.66 0 1.32 0 2 C-1.134375 1.979375 -2.26875 1.95875 -3.4375 1.9375 C-6.81575674 1.58422523 -6.81575674 1.58422523 -8 3 C-8.04092937 5.33297433 -8.04241723 7.66705225 -8 10 C-5.36 10.33 -2.72 10.66 0 11 C-0.33 11.66 -0.66 12.32 -1 13 C-7.34507042 13.35915493 -7.34507042 13.35915493 -9.9375 11.9375 C-11.63902633 8.8347167 -11.42519574 6.46230815 -11 3 C-7.9816718 -1.82932511 -5.20382316 -1.20088227 0 0 Z " fill="#C7C7C7" transform="translate(194,349)"/>
<path d="M0 0 C2.625 0.375 2.625 0.375 5 1 C5.33 2.32 5.66 3.64 6 5 C3.69 5 1.38 5 -1 5 C-0.01 6.485 -0.01 6.485 1 8 C3.58380177 8.25030977 3.58380177 8.25030977 6 8 C5.67 8.66 5.34 9.32 5 10 C2.625 10.125 2.625 10.125 0 10 C-2 8 -2 8 -2.25 5 C-2 2 -2 2 0 0 Z " fill="#B9BAB9" transform="translate(311,352)"/>
<path d="M0 0 C0.66 0 1.32 0 2 0 C2.33 2.64 2.66 5.28 3 8 C3.99 7.67 4.98 7.34 6 7 C6.33 4.69 6.66 2.38 7 0 C7.66 0 8.32 0 9 0 C9 3.3 9 6.6 9 10 C5.625 10.125 5.625 10.125 2 10 C0 8 0 8 -0.1953125 6.0546875 C-0.13020833 4.03645833 -0.06510417 2.01822917 0 0 Z " fill="#CBCBCB" transform="translate(291,352)"/>
<path d="M0 0 C0.66 0 1.32 0 2 0 C2.33 2.64 2.66 5.28 3 8 C3.99 7.67 4.98 7.34 6 7 C6.33 4.69 6.66 2.38 7 0 C7.66 0 8.32 0 9 0 C9 3.3 9 6.6 9 10 C5.625 10.125 5.625 10.125 2 10 C0 8 0 8 -0.1953125 6.0546875 C-0.13020833 4.03645833 -0.06510417 2.01822917 0 0 Z " fill="#CBCBCB" transform="translate(196,352)"/>
<path d="M0 0 C0.33 0.99 0.66 1.98 1 3 C1.99 3 2.98 3 4 3 C4 3.66 4 4.32 4 5 C3.01 5 2.02 5 1 5 C1 6.98 1 8.96 1 11 C1.99 11 2.98 11 4 11 C4 11.66 4 12.32 4 13 C2.35 12.67 0.7 12.34 -1 12 C-1 9.69 -1 7.38 -1 5 C-1.66 5 -2.32 5 -3 5 C-3 4.34 -3 3.68 -3 3 C-2.34 3 -1.68 3 -1 3 C-0.67 2.01 -0.34 1.02 0 0 Z " fill="#BEBEBE" transform="translate(286,349)"/>
<path d="M0 0 C0.33 0.99 0.66 1.98 1 3 C1.99 3 2.98 3 4 3 C4 3.66 4 4.32 4 5 C3.01 5 2.02 5 1 5 C1 6.98 1 8.96 1 11 C1.99 11 2.98 11 4 11 C4 11.66 4 12.32 4 13 C2.35 12.67 0.7 12.34 -1 12 C-1 9.69 -1 7.38 -1 5 C-1.66 5 -2.32 5 -3 5 C-3 4.34 -3 3.68 -3 3 C-2.34 3 -1.68 3 -1 3 C-0.67 2.01 -0.34 1.02 0 0 Z " fill="#BEBEBE" transform="translate(218,349)"/>
<path d="M0 0 C0.66 0 1.32 0 2 0 C2 2.64 2 5.28 2 8 C3.32 7.67 4.64 7.34 6 7 C6.33 4.69 6.66 2.38 7 0 C7.33 0 7.66 0 8 0 C8 3.3 8 6.6 8 10 C5.69 10 3.38 10 1 10 C-0.60725635 6.78548731 -0.05748185 3.56387464 0 0 Z " fill="#D1D1D0" transform="translate(269,352)"/>
<path d="M0 0 C1.32 0 2.64 0 4 0 C2.80100302 3.0831351 1.52299523 6.06279492 0 9 C-2.475 8.01 -2.475 8.01 -5 7 C-4.67 6.34 -4.34 5.68 -4 5 C-3.34 5 -2.68 5 -2 5 C-1.7834375 4.0409375 -1.7834375 4.0409375 -1.5625 3.0625 C-1 1 -1 1 0 0 Z " fill="#964B75" transform="translate(262,189)"/>
<path d="M0 0 C0.33 0 0.66 0 1 0 C1.16820551 1.93736701 1.33451095 3.87489906 1.5 5.8125 C1.5928125 6.89144531 1.685625 7.97039062 1.78125 9.08203125 C2 12 2 12 2 15 C-0.00130916 12.45287926 -1.85727656 10.0472625 -3 7 C-2.62925373 3.94134325 -1.76554463 2.64831694 0 0 Z " fill="#3A9ECD" transform="translate(215,156)"/>
<path d="M0 0 C2.475 0.495 2.475 0.495 5 1 C5 2.65 5 4.3 5 6 C3.0625 6.5625 3.0625 6.5625 1 7 C0 6 0 6 -0.0625 2.9375 C-0.041875 1.968125 -0.02125 0.99875 0 0 Z " fill="#292B28" transform="translate(225,354)"/>
<path d="M0 0 C2.79872437 2.52788007 4.45773019 4.20411134 5 8 C4.01 8.33 3.02 8.66 2 9 C1.34 8.67 0.68 8.34 0 8 C0 5.36 0 2.72 0 0 Z " fill="#36A2DA" transform="translate(239,211)"/>
<path d="M0 0 C1.98 0 3.96 0 6 0 C6 0.66 6 1.32 6 2 C5.01 2.33 4.02 2.66 3 3 C2.67 5.31 2.34 7.62 2 10 C1.34 10 0.68 10 0 10 C0 6.7 0 3.4 0 0 Z " fill="#C3C4C3" transform="translate(302,352)"/>
<path d="M0 0 C0.66 0 1.32 0 2 0 C2 1.32 2 2.64 2 4 C2.66 4 3.32 4 4 4 C4 4.66 4 5.32 4 6 C1.69 6 -0.62 6 -3 6 C-2.42655063 3.13275314 -2.1385485 2.1385485 0 0 Z " fill="#BCE5DC" transform="translate(227,202)"/>
<path d="M0 0 C2.31 0 4.62 0 7 0 C6.34 1.32 5.68 2.64 5 4 C3.0625 3.6875 3.0625 3.6875 1 3 C0.67 2.01 0.34 1.02 0 0 Z " fill="#3F403E" transform="translate(310,357)"/>
<path d="M0 0 C0.66 0.33 1.32 0.66 2 1 C1.34 2.32 0.68 3.64 0 5 C-1.32 5 -2.64 5 -4 5 C-4 4.34 -4 3.68 -4 3 C-3.34 3 -2.68 3 -2 3 C-2 2.34 -2 1.68 -2 1 C-1.34 0.67 -0.68 0.34 0 0 Z " fill="#2989C2" transform="translate(338,209)"/>
<path d="M0 0 C0 0.66 0 1.32 0 2 C-3 4 -3 4 -5.1875 3.625 C-5.785625 3.41875 -6.38375 3.2125 -7 3 C-4.49955934 -0.00052879 -4.2621484 0 0 0 Z " fill="#CEA416" transform="translate(228,210)"/>
<path d="M0 0 C2.475 0.495 2.475 0.495 5 1 C5.33 1.99 5.66 2.98 6 4 C4.68 4 3.36 4 2 4 C2 3.34 2 2.68 2 2 C1.34 2 0.68 2 0 2 C0 1.34 0 0.68 0 0 Z " fill="#9DC98A" transform="translate(163,211)"/>
</svg>
